<?xml version="1.0" standalone="no"?>
<!DOCTYPE svg PUBLIC "-//W3C//DTD SVG 20010904//EN"
 "http://www.w3.org/TR/2001/REC-SVG-20010904/DTD/svg10.dtd">
<svg version="1.0" xmlns="http://www.w3.org/2000/svg"
 width="700.000000pt" height="700.000000pt" viewBox="0 0 700.000000 700.000000"
 preserveAspectRatio="xMidYMid meet">
<metadata>
Created by potrace 1.14, written by Peter Selinger 2001-2017
</metadata>
<g transform="translate(0.000000,700.000000) scale(0.100000,-0.100000)"
fill="#000000" stroke="none">
<path d="M5971 6862 c-51 -192 -224 -516 -524 -982 -62 -97 -252 -371 -346
-502 -31 -42 -63 -86 -71 -98 -59 -86 -548 -729 -629 -826 -14 -17 -33 -40
-41 -50 -148 -186 -194 -244 -196 -244 -1 0 6 22 15 49 18 47 29 95 37 156 2
17 6 44 9 61 19 123 26 646 12 894 -4 69 -10 173 -13 231 -6 106 -21 203 -23
149 -1 -35 -114 -255 -186 -365 -224 -341 -587 -759 -1105 -1271 -96 -95 -175
-172 -177 -171 -1 2 11 45 28 97 33 105 71 251 94 359 16 78 20 101 31 181 10
82 12 99 19 170 4 36 8 75 10 88 5 31 -5 28 -56 -19 -108 -99 -228 -211 -270
-251 -67 -62 -269 -250 -304 -282 -25 -23 -134 -124 -294 -275 -20 -18 -70
-64 -112 -102 -344 -311 -604 -669 -747 -1027 -40 -100 -93 -272 -106 -342 -3
-19 -8 -46 -11 -60 -3 -13 -7 -40 -9 -60 -3 -19 -8 -55 -12 -80 -7 -55 -8
-310 0 -365 3 -22 8 -62 12 -90 3 -27 8 -58 10 -67 8 -36 14 -64 20 -93 23
-115 111 -346 181 -474 173 -316 447 -606 753 -795 262 -163 591 -282 856
-311 27 -3 70 -8 95 -11 149 -17 378 -3 564 35 194 40 323 86 505 178 285 146
489 311 787 638 86 95 250 330 343 490 132 229 290 587 388 880 55 162 152
497 167 570 2 11 19 85 38 165 19 80 45 195 56 255 12 61 23 120 25 131 2 12
7 39 10 60 4 22 8 46 11 54 3 13 10 53 19 115 13 86 19 121 31 200 8 50 17
117 20 150 4 33 8 67 10 75 2 8 7 44 10 80 4 36 9 73 10 82 2 9 7 49 10 89 4
40 8 80 10 89 2 10 6 55 10 101 4 46 8 100 10 119 2 19 6 78 10 130 3 52 8
109 10 125 2 17 7 89 10 160 4 72 8 162 10 200 18 362 23 990 10 1330 -4 110
-9 226 -10 258 -1 31 -4 59 -6 62 -3 2 -11 -17 -18 -43z m-2250 -4091 l26 -1
0 -753 0 -752 -186 1 c-102 1 -188 2 -191 3 -3 0 -14 18 -25 39 -11 20 -34 62
-51 92 -17 30 -42 75 -56 100 -14 25 -88 158 -165 295 -78 138 -151 268 -163
290 -12 22 -25 43 -28 47 -4 4 -7 -190 -7 -430 l0 -437 -172 -1 -173 0 0 753
0 753 189 0 189 0 63 -112 c34 -62 134 -241 222 -398 88 -157 170 -302 181
-324 l21 -38 3 435 2 436 23 3 c18 2 168 2 298 -1z"/>
</g>
</svg>
